<?xml version="1.0" encoding="UTF-8" standalone="no"?>
<!DOCTYPE svg PUBLIC "-//W3C//DTD SVG 1.1//EN" "http://www.w3.org/Graphics/SVG/1.1/DTD/svg11.dtd">
<svg width="100%" height="100%" viewBox="0 0 16 16" version="1.1" xmlns="http://www.w3.org/2000/svg" xmlns:xlink="http://www.w3.org/1999/xlink" xml:space="preserve" xmlns:serif="http://www.serif.com/" style="fill-rule:evenodd;clip-rule:evenodd;stroke-linejoin:round;stroke-miterlimit:2;">
    <g transform="matrix(1.07692,0,0,1,-1.15385,-2.19269e-15)">
        <path d="M8.5,1C12.087,1 15,4.137 15,8C15,11.863 12.087,15 8.5,15C4.913,15 2,11.863 2,8C2,4.137 4.913,1 8.5,1ZM8.5,4.8C10.14,4.8 11.471,6.234 11.471,8C11.471,9.766 10.14,11.2 8.5,11.2C6.86,11.2 5.529,9.766 5.529,8C5.529,6.234 6.86,4.8 8.5,4.8Z" style="fill:rgb(163,51,255);"/>
    </g>
</svg>
